# xmcd
#
# Track frame offsets:
#	225
#	14647
#	36626
#	49055
#	64974
#	89401
#	101445
#	116656
#	135494
#	150218
#	170410
#	182831
#
# Disc length: 2615 seconds
#
# Revision: 0
# Processed by: cddbd v1.5.1PL0 Copyright (c) Steve Scherf et al.
# Submitted via: dBpowerAMP V4.0
#
DISCID=a10a340c
DTITLE=Nelsen Adelard - Jack of All Trades
DYEAR=2002
DGENRE=Blues
TTITLE0=Boogie Woogie Blue
TTITLE1=Tell The Truth
TTITLE2=In Walks G
TTITLE3=Back To Hermosa
TTITLE4=Too Bad
TTITLE5=El Harpo
TTITLE6=Guitar Blues
TTITLE7=Stay With Me (Just For Tonight)
TTITLE8=I'm Here To Stay
TTITLE9=RC Cola (And A Moonpie)
TTITLE10=Nelsen's Jump
TTITLE11=God Bless The Child
EXTD=
EXTT0=
EXTT1=
EXTT2=
EXTT3=
EXTT4=
EXTT5=
EXTT6=
EXTT7=
EXTT8=
EXTT9=
EXTT10=
EXTT11=
PLAYORDER=
